<svg xmlns="http://www.w3.org/2000/svg" viewBox="0 0 512 512"><path fill="#081d3c" d="M440.5 88.5l-52 52L415 167a23.9 23.9 0 0 1 0 33.9l-17.4 17.4a208 208 0 1 1-104-103.9L311 97a23.9 23.9 0 0 1 33.9 0l26.5 26.5 52-52 17.1 17zM500 60h-24c-6.6 0-12 5.4-12 12s5.4 12 12 12h24c6.6 0 12-5.4 12-12s-5.4-12-12-12zM440 0a12 12 0 0 0-12 12v24c0 6.6 5.4 12 12 12s12-5.4 12-12V12a12 12 0 0 0-12-12zm33.9 55l17-17a12 12 0 1 0-17-17l-17 17a12 12 0 1 0 17 17zm-67.8 0a12 12 0 1 0 17-17l-17-17a12 12 0 1 0-17 17l17 17zm67.8 34a12 12 0 1 0-17 17l17 17a12 12 0 1 0 17-17l-17-17zM112 272a64 64 0 0 1 64-64c8.8 0 16-7.2 16-16s-7.2-16-16-16c-52.9 0-96 43.1-96 96 0 8.8 7.2 16 16 16s16-7.2 16-16z"/></svg>
